<svg xmlns="http://www.w3.org/2000/svg" viewBox="0 0 1354.09 758.07"><defs><style>.cls-1{fill:#010101;}</style></defs><g id="Capa_2" data-name="Capa 2"><g id="Capa_1-2" data-name="Capa 1"><path class="cls-1" d="M299.1,696.1h13.09c11.18,0,19.77,0,27,5.59,6.84,5.25,10.51,13.59,10.51,24.27s-3.67,18.93-10.51,24.19-14.76,5.58-24.44,5.58H299.1ZM317,747c6.59,0,11.68-.34,15.93-3.92,4.5-3.84,6.76-9.59,6.76-17.18s-2.26-13.35-6.76-17.19c-4.42-3.67-9.93-3.92-17.1-3.92h-7V747Z"/><path class="cls-1" d="M379.08,696.1h33.28v8.26h-23.6v14.93h23.6v8.5h-23.6v19.27h23.6v8.67H379.08Z"/><path class="cls-1" d="M441.72,696.1h9.68v51h21.68v8.67H441.72Z"/><path class="cls-1" d="M572.16,703.61c-13.09,0-22,9.25-22,22.52,0,13.09,9.1,22.18,21,22.18,7.09,0,13.43-2.5,19.27-7.51v10.93a30.85,30.85,0,0,1-18.52,5.59c-9.17,0-17-3.09-22.85-8.84a31.41,31.41,0,0,1,22.69-53.8A32.58,32.58,0,0,1,591,700.85l-.5,9.76A27.61,27.61,0,0,0,572.16,703.61Z"/><path class="cls-1" d="M672.58,748.14a32.31,32.31,0,0,1-45.12,0A30.16,30.16,0,0,1,618.2,726a30.49,30.49,0,0,1,9.26-22.18,32.54,32.54,0,0,1,45.12,0A30.69,30.69,0,0,1,681.92,726,30.24,30.24,0,0,1,672.58,748.14Zm-7.17-37.94a21.12,21.12,0,0,0-15.35-6.51,21.45,21.45,0,0,0-15.43,6.51,22.87,22.87,0,0,0,0,31.61,21.47,21.47,0,0,0,30.78,0,22.66,22.66,0,0,0,0-31.61Z"/><path class="cls-1" d="M720.62,696.1v36.2c0,10.76,5,16.18,14.85,16.18s14.84-5.42,14.84-16.18V696.1H760v37.11c0,16.1-8.09,24.11-24.52,24.11s-24.44-8-24.44-24.11V696.1Z"/><path class="cls-1" d="M791.6,693.76l37.86,36.45a75.62,75.62,0,0,1,6.51,7.26V696.1h8.92v62L806.28,721a48,48,0,0,1-5.76-6.68v41.45H791.6Z"/><path class="cls-1" d="M896.1,755.73h-9.67V704.36H870.58V696.1h41.29v8.26H896.1Z"/><path class="cls-1" d="M946.65,755.73h-9.09V696.1h13.51c6.42,0,11.17.5,14.84,3.34s5.76,7.5,5.76,13.09c0,9.59-4.67,15-13.68,16.1l20.52,27.1H967.58L947.73,729h-1.08ZM949,721.54c8.51,0,12.76-1,12.76-8.17,0-7.34-4.08-8.93-12.76-8.93h-1.75v17.1Z"/><path class="cls-1" d="M1013.79,728.46l-20.1-32.36h10.17l12.51,20.27c.25.41,1.17,2,2.5,4.75a27.73,27.73,0,0,1,2.51-5l12.84-20h9.68l-20.52,32.36v27.27h-9.59Z"/><path class="cls-1" d="M286.19,439.12V418.53H419.61v20.59a17.21,17.21,0,0,0-5.76-4.7,18,18,0,0,0-8.28-1.76H370.38V598.8H352.84a16.82,16.82,0,0,1-12.39-5.17,17,17,0,0,1-5.14-12.49V432.66H300.22a18.12,18.12,0,0,0-8.29,1.76A17.33,17.33,0,0,0,286.19,439.12Z"/><path class="cls-1" d="M140.59,598.88H54c-19.2,0-29.93-9.76-29.93-30.92V438.11C24.09,407.84,0,414,0,414c1-14.33,62.16-30.92,62.16,13.66V569.27c0,14.31,10.42,24.4,24.74,24.4h19.2c22.78,0,26.69-21.15,35.47-23.75C150,567.64,163.37,598.88,140.59,598.88Z"/><path class="cls-1" d="M238.2,543.05q-10.74-27.74-22.67-58.61l-21.92-54a20.91,20.91,0,0,0-5.51-8.35c-2.69-2.69-6.72-4.33-12.09-4.77a9,9,0,0,0-2.08-.15,35.82,35.82,0,0,0-14,3,51.16,51.16,0,0,0-14,9.4V430a12.59,12.59,0,0,1,7-2.24,6.13,6.13,0,0,1,4,1.05,8.47,8.47,0,0,1,2.24,2.38,3,3,0,0,0,.3,1.2l-58,142.88h7.16l18.12-41.68,4.8-12.21h62.87c11.14,28,24.21,64.06,24.21,64.06a19.86,19.86,0,0,0,5.37,8.35c2.68,2.69,6.86,4.33,12.23,4.77.6,0,1.19.15,1.94.15a34.27,34.27,0,0,0,14.17-3.13,51.27,51.27,0,0,0,5.79-3S243.59,557,238.2,543.05Zm-103-30.93L163,441.34c3.28,8.8,7.9,20.58,13.72,35.49,1.93,5,7.5,19.11,13.94,35.29Z"/><path class="cls-1" d="M1346.88,576.54a7.36,7.36,0,0,1-6.14-3.56c-11-16.51-25-53-32.39-71.66s-13.9-35.14-19.53-49.4l-8.46-21.41A20.14,20.14,0,0,0,1275,422q-4.07-4-12.16-4.71a16.61,16.61,0,0,0-2.06-.13,34.55,34.55,0,0,0-14,3,48.62,48.62,0,0,0-14,9.31V430a12.32,12.32,0,0,1,7-2.29,6.8,6.8,0,0,1,4.12,1.08,6.42,6.42,0,0,1,2.05,2.43l.37,1.08c.07,0,.11,0,.11.13l-31.18,79.67v0l-36,86.53h7l29.07-69.1,2.81-7.22.38-1h62.72c1.64,4.1,3.29,8.26,4.93,12.36,0,0,16,43.27,19.23,48.79s6.7,9.66,10.33,12.47a19.6,19.6,0,0,0,12.28,4.2,28.3,28.3,0,0,0,8.38-1.4,25.14,25.14,0,0,0,8.49-4.71,26,26,0,0,0,6.62-8.66,29.68,29.68,0,0,0,2.63-13.23C1351.36,574.77,1349,576.54,1346.88,576.54Zm-124.77-64.42,27.76-70.72q5.07,13.07,13.67,35.37c2,5.17,7.56,19.23,14,35.35Z"/><path class="cls-1" d="M560,598.09H474.78A42.41,42.41,0,0,1,464.65,597,24.83,24.83,0,0,1,454,591.61a17.45,17.45,0,0,1-4.88-12.41V435.43c-.07-.41-.22-1-.42-1.73a7.21,7.21,0,0,0-1-2.15,6.05,6.05,0,0,0-2-1.78,5.34,5.34,0,0,0-1.62-.58,9.27,9.27,0,0,0-1.82-.16,11.87,11.87,0,0,0-6.92,2.33v-.49a50.14,50.14,0,0,1,7.16-5.79,47,47,0,0,1,6.66-3.69,33.28,33.28,0,0,1,13.84-3.07h90v20.8a16.93,16.93,0,0,0-5.66-4.74,17.35,17.35,0,0,0-8.17-1.78h-55.3v79.52H544v9.26H483.77v47c0,5.32,0,9.84,3,14.42,4.25,6.33,11.54,10.2,20.34,10.2H526c14.85,0,21.55-9.12,26.89-16,2.72-3.53,5.09-6.47,8-7.34C569.24,567.34,582.37,598.09,560,598.09Z"/><path class="cls-1" d="M1036.61,584.88c0-.08-.1-.16-.14-.24a4.93,4.93,0,0,0-.28-.85l-.09-.23q-1.44-3.75-10.28-26.07c-5.88-14.88-16.89-37.5-24.28-56.17L982,451.92l-8.46-21.41a20.14,20.14,0,0,0-5.39-8.47q-4.06-4-12.16-4.71a16.61,16.61,0,0,0-2.06-.13,34.55,34.55,0,0,0-14,3,48.62,48.62,0,0,0-14,9.31V430a12.32,12.32,0,0,1,7-2.29,6.84,6.84,0,0,1,4.12,1.08,6.55,6.55,0,0,1,2.06,2.43l.36,1.08c.07,0,.11,0,.11.13l-53.23,136c1.35,2.71,2.63,5.39,3.87,8l21.56-55.07h62.64c11.15,28,27.6,64,27.6,64a21.27,21.27,0,0,0,5.51,8.47c2.7,2.65,6.71,4.23,12,4.71a15.17,15.17,0,0,0,2.05.12,34.64,34.64,0,0,0,14.05-3c1.45-.64,2.87-1.34,4.25-2.12ZM915.37,512.12l27.69-70.72q5.09,13.07,13.67,35.37c2,5.19,7.56,19.24,14,35.35Z"/><path class="cls-1" d="M871.66,578.47c-1.23-2.62-2.52-5.3-3.86-8-9.82-19.8-23.29-41.26-54-49.86h6.38c29.57,0,53.93-22.91,53.93-51s-24.36-51-53.93-51H756.05c-14.2,0-28.71,7-29.29,13.63,0,0,21.46-5.51,21.46,21.46V571.05c0,19.15,12.76,25.81,26.1,25.81a46.78,46.78,0,0,0,8-.72l-.18-75.54c51.62,0,54.51,129.91,126.43,89.31C888.4,613.62,881,598,871.66,578.47ZM790.85,516h-8.7V423.17h8.7c27.25,0,49.29,20.88,49.29,46.39S818.1,516,790.85,516Z"/><path class="cls-1" d="M652.9,520.6h6.38c29.58,0,53.94-22.91,53.94-51s-24.36-51-53.94-51H595.2c-14.21,0-28.71,7-29.29,13.63,0,0,21.46-5.51,21.46,21.46V571.05c0,19.15,12.76,25.81,26.1,25.81a46.78,46.78,0,0,0,8-.72l-.19-75.54c32,0,45.31,50,67.94,78.28H721.9C706.64,577.75,700.34,533.86,652.9,520.6ZM630,516h-8.7V423.17H630c27.26,0,49.3,20.88,49.3,46.39S657.25,516,630,516Z"/><polygon class="cls-1" points="1215.18 512.12 1215.17 512.14 1215.17 512.12 1215.18 512.12"/><path class="cls-1" d="M1164.93,598.58H1055.14c-5,0-8.79-5.85-2.05-17.27,8.78-15.81,87.53-158.09,87.53-158.09h-32.78v.29h-17c-20.21,0-23.72,18.74-31.92,21.08-7.32,2.34-19.33-25.77,1.17-25.77H1090v-.29h79.63c5,0,8.78,5.86,2,17.27-8.77,15.82-87.53,158.1-87.53,158.1h49.76c20.5,0,23.72-19,31.92-21.37C1173.12,570.48,1185.42,598.58,1164.93,598.58Z"/><path class="cls-1" d="M194.36,522.62H131.3l.31-.75,62.28-.49,0,.08Z"/><path class="cls-1" d="M755.52,159.27c-3.69,38.28-21,73-48.77,97.74A134.55,134.55,0,0,1,661,284a127.17,127.17,0,0,1-105.39-10.16,134.59,134.59,0,0,1-39.72-35.24c-22.51-29.59-32.88-67-29.19-105.25s21-73,48.78-97.74a134.55,134.55,0,0,1,45.72-27,127.73,127.73,0,0,1,21.25-5.37c18.74-7.92,20.44,22.28,12.9,25.51h0a8.61,8.61,0,0,1-5,2.4,103.61,103.61,0,0,0-54.25,24.64,119.35,119.35,0,0,0-50,86.51C499.92,207.3,546,264.91,609.1,271s119.34-41.66,125.61-106.64a119.35,119.35,0,0,0-32.5-94.46,106,106,0,0,0-32.33-27.51,8.79,8.79,0,0,1-2.06-13.94l8.26-8.29a8.68,8.68,0,0,1,10.47-1.41l.06,0A134.5,134.5,0,0,1,726.34,54C748.85,83.61,759.22,121,755.52,159.27Z"/><path class="cls-1" d="M603.88,127.5c4.88-38.15,23.27-72.3,51.78-96.17A134.72,134.72,0,0,1,702.21,5.77a127.14,127.14,0,0,1,105,13.44,134.68,134.68,0,0,1,38.61,36.45c21.58,30.28,30.78,68,25.9,106.12s-23.27,72.3-51.79,96.17A134.57,134.57,0,0,1,773.4,283.5a128.15,128.15,0,0,1-21.4,4.7c-19,7.33-19.74-22.9-12.11-25.9h0a8.56,8.56,0,0,1,5.05-2.25,103.62,103.62,0,0,0,55-22.94,119.34,119.34,0,0,0,52.62-84.91c8.29-64.76-36-123.77-98.86-131.82S633.12,58.3,624.84,123.05a119.32,119.32,0,0,0,29.55,95.43A105.87,105.87,0,0,0,685.85,247a8.8,8.8,0,0,1,1.62,14L679,269a8.69,8.69,0,0,1-10.51,1.09l-.05,0a134.42,134.42,0,0,1-38.61-36.45C608.19,203.33,599,165.65,603.88,127.5Z"/></g></g></svg>