<svg xmlns="http://www.w3.org/2000/svg" viewBox="0 0 1272.98 337.8"><defs><style>.cls-1{fill:#FFFFFF;}</style></defs><g id="Capa_2" data-name="Capa 2"><g id="Capa_1-2" data-name="Capa 1"><path class="cls-1" d="M281.19,279.54H293.5c10.51,0,18.59,0,25.41,5.25,6.43,4.94,9.88,12.78,9.88,22.82s-3.45,17.8-9.88,22.74-13.88,5.25-23,5.25H281.19ZM298,327.37c6.2,0,11-.32,15-3.69,4.23-3.6,6.35-9,6.35-16.15S317.18,295,313,291.38c-4.16-3.45-9.33-3.69-16.08-3.69h-6.58v39.68Z"/><path class="cls-1" d="M356.38,279.54h31.29v7.76H365.48v14h22.19v8H365.48v18.12h22.19v8.15H356.38Z"/><path class="cls-1" d="M415.27,279.54h9.09v47.91h20.39v8.15H415.27Z"/><path class="cls-1" d="M537.9,286.59c-12.31,0-20.7,8.71-20.7,21.17s8.54,20.86,19.76,20.86c6.66,0,12.62-2.35,18.11-7.05v10.27a29,29,0,0,1-17.41,5.25c-8.62,0-16-2.9-21.48-8.31a29.53,29.53,0,0,1,21.33-50.58A30.55,30.55,0,0,1,555.62,284l-.47,9.17A26,26,0,0,0,537.9,286.59Z"/><path class="cls-1" d="M632.3,328.47a30.4,30.4,0,0,1-42.42,0,29.26,29.26,0,0,1,0-41.64,30.58,30.58,0,0,1,42.42,0,28.86,28.86,0,0,1,8.79,20.86A28.45,28.45,0,0,1,632.3,328.47Zm-6.74-35.68a19.87,19.87,0,0,0-14.43-6.12,20.2,20.2,0,0,0-14.51,6.12,21.53,21.53,0,0,0,0,29.72,20.19,20.19,0,0,0,28.94,0,21.3,21.3,0,0,0,0-29.72Z"/><path class="cls-1" d="M677.46,279.54v34c0,10.11,4.71,15.21,14,15.21s14-5.1,14-15.21v-34h9.09v34.89c0,15.13-7.6,22.66-23.05,22.66s-23-7.53-23-22.66V279.54Z"/><path class="cls-1" d="M744.19,277.34l35.6,34.27a70.42,70.42,0,0,1,6.11,6.82V279.54h8.39V337.8L758,302.9a44.68,44.68,0,0,1-5.41-6.27v39h-8.39Z"/><path class="cls-1" d="M842.43,335.6h-9.09V287.3h-14.9v-7.76h38.81v7.76H842.43Z"/><path class="cls-1" d="M890,335.6H881.4V279.54h12.7c6,0,10.51.47,14,3.13s5.41,7.06,5.41,12.31c0,9-4.39,14.12-12.86,15.14L919.9,335.6H909.63L891,310.51h-1Zm2.19-32.15c8,0,12-.94,12-7.68,0-6.9-3.84-8.39-12-8.39H890.5v16.07Z"/><path class="cls-1" d="M953.07,310l-18.9-30.42h9.57l11.76,19c.23.39,1.1,1.88,2.35,4.47a26.73,26.73,0,0,1,2.35-4.7l12.08-18.82h9.1L962.09,310V335.6h-9Z"/><path class="cls-1" d="M269.05,37.94V18.59H394.47V37.94a16.12,16.12,0,0,0-5.41-4.41,16.94,16.94,0,0,0-7.79-1.66H348.19V188.06H331.71a15.84,15.84,0,0,1-11.66-4.86,16,16,0,0,1-4.83-11.74V31.87h-33a17,17,0,0,0-7.79,1.66A16.28,16.28,0,0,0,269.05,37.94Z"/><path class="cls-1" d="M132.17,188.14H50.78c-18.05,0-28.14-9.18-28.14-29.07V37C22.64,8.54,0,14.36,0,14.36.92.89,58.44-14.71,58.44,27.2V160.3c0,13.45,9.79,22.94,23.25,22.94h18c21.42,0,25.1-19.88,33.35-22.33C141.05,158.77,153.59,188.14,132.17,188.14Z"/><path class="cls-1" d="M223.94,135.65q-10.11-26.07-21.32-55.1L182,29.79a19.76,19.76,0,0,0-5.18-7.85c-2.53-2.52-6.31-4.07-11.36-4.48a8.61,8.61,0,0,0-2-.14,33.74,33.74,0,0,0-13.18,2.8A48.42,48.42,0,0,0,137.15,29v.42a11.81,11.81,0,0,1,6.59-2.1,5.81,5.81,0,0,1,3.78,1,8.05,8.05,0,0,1,2.11,2.24,2.79,2.79,0,0,0,.28,1.13L95.37,165.94h6.73l17-39.18,4.52-11.48h59.1c10.47,26.3,22.76,60.22,22.76,60.22a18.68,18.68,0,0,0,5,7.85c2.53,2.53,6.45,4.07,11.5,4.49.56,0,1.12.14,1.82.14A32.11,32.11,0,0,0,237.19,185a45.4,45.4,0,0,0,5.45-2.83S229,148.72,223.94,135.65Zm-96.87-29.08L153.27,40c3.09,8.27,7.43,19.35,12.9,33.37,1.82,4.73,7.06,18,13.11,33.17Z"/><path class="cls-1" d="M1266.21,167.14a6.92,6.92,0,0,1-5.78-3.35c-10.36-15.52-23.51-49.81-30.45-67.37s-13.06-33-18.36-46.44l-7.95-20.13a19,19,0,0,0-5.07-8c-2.55-2.5-6.35-4-11.44-4.43a14.54,14.54,0,0,0-1.92-.12,32.6,32.6,0,0,0-13.19,2.84,46.27,46.27,0,0,0-13.19,8.76v.45a11.59,11.59,0,0,1,6.59-2.15,6.49,6.49,0,0,1,3.88,1,6.09,6.09,0,0,1,1.92,2.29l.35,1c.07,0,.11,0,.11.12l-29.32,74.9v0l-33.82,81.35h6.6l27.32-65,2.64-6.79.36-.91h59c1.54,3.86,3.09,7.76,4.63,11.61,0,0,15,40.69,18.08,45.87a40.32,40.32,0,0,0,9.71,11.72,18.42,18.42,0,0,0,11.55,4,26.4,26.4,0,0,0,7.87-1.32,23.45,23.45,0,0,0,8-4.43,24.38,24.38,0,0,0,6.23-8.14,28,28,0,0,0,2.47-12.44C1270.42,165.47,1268.16,167.14,1266.21,167.14Zm-117.3-60.57L1175,40.09q4.76,12.27,12.84,33.25c1.87,4.86,7.11,18.08,13.14,33.23Z"/><path class="cls-1" d="M526.41,187.39H446.34a40.25,40.25,0,0,1-9.53-1,23.36,23.36,0,0,1-10-5,16.38,16.38,0,0,1-4.59-11.67V34.48c-.07-.39-.2-.93-.39-1.63a7.13,7.13,0,0,0-.94-2,5.62,5.62,0,0,0-1.92-1.66,5,5,0,0,0-1.52-.55,9,9,0,0,0-1.72-.15,11.21,11.21,0,0,0-6.5,2.19v-.46a46.07,46.07,0,0,1,6.73-5.44,43,43,0,0,1,6.26-3.47,31.24,31.24,0,0,1,13-2.89h84.59V38a15.89,15.89,0,0,0-5.32-4.46,16.28,16.28,0,0,0-7.68-1.68h-52v74.76h56.6v8.71h-56.6v44.14c0,5,0,9.26,2.84,13.56,4,6,10.85,9.59,19.12,9.59h17.76c13.95,0,20.25-8.57,25.27-15.07,2.56-3.31,4.79-6.08,7.53-6.9C535.14,158.49,547.48,187.39,526.41,187.39Z"/><path class="cls-1" d="M974.51,175l-.12-.22a5.29,5.29,0,0,0-.26-.8l-.09-.22q-1.35-3.53-9.66-24.51c-5.53-14-15.89-35.24-22.83-52.8s-13.06-33-18.36-46.44l-8-20.13a18.84,18.84,0,0,0-5.06-8q-3.82-3.75-11.43-4.43a14.86,14.86,0,0,0-1.94-.12,32.59,32.59,0,0,0-13.18,2.84,46.13,46.13,0,0,0-13.19,8.76v.45A11.59,11.59,0,0,1,877,27.24a6.44,6.44,0,0,1,3.87,1,6.25,6.25,0,0,1,1.94,2.29l.34,1a.11.11,0,0,1,.11.12l-50,127.85c1.27,2.55,2.47,5.07,3.63,7.53l20.27-51.77H916c10.48,26.3,26,60.15,26,60.15a19.9,19.9,0,0,0,5.17,8q3.81,3.75,11.31,4.44a15.07,15.07,0,0,0,1.93.11,32.52,32.52,0,0,0,13.2-2.84,43.79,43.79,0,0,0,4-2Zm-114-68.4,26-66.48q4.77,12.27,12.85,33.25c1.87,4.88,7.11,18.09,13.14,33.23Z"/><path class="cls-1" d="M819.45,169c-1.16-2.46-2.37-5-3.63-7.53-9.24-18.61-21.9-38.79-50.81-46.88h6c27.81,0,50.71-21.53,50.71-48s-22.9-48-50.71-48H710.76c-13.35,0-27,6.54-27.53,12.81,0,0,20.17-5.18,20.17,20.17V162c0,18,12,24.26,24.54,24.26a43.21,43.21,0,0,0,7.53-.68l-.17-71c48.52,0,51.25,122.13,118.85,84C835.18,202,828.19,187.27,819.45,169Zm-76-58.77H735.3V23h8.18c25.62,0,46.34,19.63,46.34,43.62S769.1,110.18,743.48,110.18Z"/><path class="cls-1" d="M613.79,114.54h6c27.81,0,50.71-21.53,50.71-48s-22.9-48-50.71-48H559.54c-13.35,0-27,6.54-27.53,12.81,0,0,20.17-5.18,20.17,20.17V162c0,18,12,24.26,24.54,24.26a43.21,43.21,0,0,0,7.53-.68l-.17-71c30.11,0,42.59,47,63.87,73.6h30.71C664.31,168.27,658.39,127,613.79,114.54Zm-21.53-4.36h-8.18V23h8.18c25.62,0,46.34,19.63,46.34,43.62S617.88,110.18,592.26,110.18Z"/><polygon class="cls-1" points="1142.39 106.57 1142.38 106.59 1142.38 106.57 1142.39 106.57"/><path class="cls-1" d="M1095.15,187.86H991.94c-4.68,0-8.26-5.51-1.93-16.24C998.26,156.76,1072.3,23,1072.3,23h-30.82v.27h-16c-19,0-22.29,17.62-30,19.81-6.88,2.21-18.17-24.22,1.1-24.22h28.08v-.27h74.86c4.67,0,8.25,5.51,1.92,16.24-8.25,14.86-82.29,148.62-82.29,148.62H1066c19.27,0,22.3-17.88,30-20.09C1102.85,161.43,1114.41,187.86,1095.15,187.86Z"/><path class="cls-1" d="M182.72,116.44H123.43l.29-.7,58.55-.46,0,.08Z"/></g></g></svg>